<svg xmlns="http://www.w3.org/2000/svg" viewBox="0 0 200 44">
    <defs>
        <style>.logo-path{fill:#ffffff;}</style>
    </defs>
    <title>logo-path</title>
    <path class="logo-path"
          d="M48.84,2.72a35.73,35.73,0,0,0-7-1.72L38.9,9a26.2,26.2,0,0,0-3.08-.1c-.81,0-1.61.1-2.4.19L30,1.21a36.9,36.9,0,0,0-6.9,2l1.57,8.39A26.93,26.93,0,0,0,20,14.39L13,9.23a36.48,36.48,0,0,0-4.92,5.1l5.67,6.51a26.48,26.48,0,0,0-2.61,4.76L2.47,24.54A34,34,0,0,0,1,31.4l13.21,3.49A21.87,21.87,0,0,1,35.64,14.74a22.38,22.38,0,0,1,11,2.52Z"></path>
    <path class="logo-path" d="M19.05,35h20.5L24.44,23.37A19,19,0,0,0,19.05,35"></path>
    <path class="logo-path"
          d="M67.27,34.21a.68.68,0,0,1-.66.55H52.17a.47.47,0,0,1-.49-.55L56,4a.82.82,0,0,1,.64-.65l4.67-.8a.39.39,0,0,1,.48.46L58,29.61a.48.48,0,0,0,.49.56h8.84a.48.48,0,0,1,.49.56Z"></path>
    <path class="logo-path"
          d="M86.67,31.46a4.26,4.26,0,0,1-.35,1.06s-1.18,2.24-3.2,2.24H73.88a4.22,4.22,0,0,1-1.12-.17s-2.4-.74-2.11-2.57l2.49-16.16a4,4,0,0,1,.35-1.06s1.19-2.25,3.25-2.25H86a4.23,4.23,0,0,1,1.12.18s2.35.74,2.07,2.57Zm-5.8-.87a.7.7,0,0,0,.66-.56l2-12.72a.47.47,0,0,0-.48-.56H79a.68.68,0,0,0-.66.56L76.33,30a.49.49,0,0,0,.49.56Z"></path>
    <path class="logo-path"
          d="M105.77,34.21a.69.69,0,0,1-.67.55H101c-.31,0-.55-.17-.51-.38s-.2-.35-.51-.31l-3.25.46a32.89,32.89,0,0,1-3.76.32q-3,0-2.57-2.7l1.15-7.45a4.12,4.12,0,0,1,.35-1.06s1.19-2.24,3.25-2.24H102a.7.7,0,0,0,.66-.56l.61-4a.47.47,0,0,0-.48-.56h-4.1a.69.69,0,0,0-.66.56l-.31,2a.69.69,0,0,1-.66.56H93.23a.48.48,0,0,1-.49-.56l.47-3a4,4,0,0,1,.35-1.06s1.19-2.25,3.25-2.25h8.69a4.22,4.22,0,0,1,1.11.18s2.36.74,2.07,2.57Zm-5.24-3.43a.71.71,0,0,0,.66-.57l.75-4.85a.47.47,0,0,0-.49-.56H97.36a.68.68,0,0,0-.66.56l-.78,5a.45.45,0,0,0,.49.54Z"></path>
    <path class="logo-path"
          d="M125.71,34.21a.66.66,0,0,1-.65.55h-4.31c-.32,0-.55-.17-.51-.38s-.2-.35-.51-.3c0,0-5.35.82-5.79.82a3.91,3.91,0,0,1-3.06-1.11,3.52,3.52,0,0,1-.71-3l2-13.19a6.9,6.9,0,0,1,.29-1.08s1-2.53,2.48-3.23a11.31,11.31,0,0,1,4.77-.8c.46,0,1.12,0,2,0s1.49,0,1.86,0l1.2-8.26a.85.85,0,0,1,.65-.65l4-.66a.4.4,0,0,1,.49.47Zm-4.87-3.78,2-13.12a.47.47,0,0,0-.48-.56h-2.23a4.81,4.81,0,0,0-1.13.16s-1.35.4-1.52,1.51L116,28.49a4.12,4.12,0,0,0,0,1.11,1.37,1.37,0,0,0,1.36,1.08c.27,0,1.44-.09,3.5-.25"></path>
    <path class="logo-path"
          d="M145.31,31.46a4.26,4.26,0,0,1-.35,1.06s-1.18,2.24-3.2,2.24h-8.64a4.22,4.22,0,0,1-1.12-.17s-2.35-.74-2.07-2.57l.65-4.22a.7.7,0,0,1,.66-.56h4.1a.47.47,0,0,1,.48.56l-.4,2.63a.47.47,0,0,0,.48.55h3.67a.69.69,0,0,0,.66-.55L140.6,28a.93.93,0,0,0-.41-.85l-6.71-4a5.51,5.51,0,0,1-.9-.69,2.79,2.79,0,0,1-.87-2l.71-4.63a4,4,0,0,1,.36-1.06S134,12.55,136,12.55h8.54a4.22,4.22,0,0,1,1.11.18s2.36.74,2.07,2.57l-.6,3.91a.69.69,0,0,1-.66.56h-4.05a.47.47,0,0,1-.48-.56l.35-2.32a.47.47,0,0,0-.48-.56h-3.67a.68.68,0,0,0-.65.56l-.33,2.1a.9.9,0,0,0,.41.84l6.69,3.93a5.11,5.11,0,0,1,.9.69,2.84,2.84,0,0,1,.89,2.06Z"></path>
    <path class="logo-path"
          d="M159.14,34.21a.68.68,0,0,1-.66.55h-4.93a4.22,4.22,0,0,1-1.12-.17s-2.35-.74-2.07-2.57l2.26-14.62a.47.47,0,0,0-.49-.56h-1.44a.47.47,0,0,1-.48-.56l.49-3.17a.68.68,0,0,1,.66-.56h1.44a.67.67,0,0,0,.65-.56l1.2-7.88a.86.86,0,0,1,.65-.65l4.5-.73a.39.39,0,0,1,.48.47L158.91,12a.47.47,0,0,0,.48.56h2.38a.47.47,0,0,1,.48.56l-.49,3.17a.67.67,0,0,1-.65.56h-2.38a.69.69,0,0,0-.66.56l-1.93,12.52a.48.48,0,0,0,.49.56h2.51a.47.47,0,0,1,.49.55Z"></path>
    <path class="logo-path"
          d="M178.23,31.46a4.4,4.4,0,0,1-.35,1.06s-1.19,2.24-3.25,2.24h-8.88a4.28,4.28,0,0,1-1.12-.17s-2.4-.74-2.11-2.57L165,15.86a4.4,4.4,0,0,1,.35-1.06s1.19-2.25,3.25-2.25h8.88a4.82,4.82,0,0,1,1.12.17s2.39.75,2.11,2.58l-1.17,7.61a1.76,1.76,0,0,1-.53.91l-.84.67a1.85,1.85,0,0,1-1,.36h-7.74a.67.67,0,0,0-.65.55L168,30.52a.47.47,0,0,0,.48.55h4a.68.68,0,0,0,.66-.55l.4-2.59a.69.69,0,0,1,.66-.55h4.1a.47.47,0,0,1,.48.55Zm-4.29-9.89a.68.68,0,0,0,.66-.56l.65-4.2a.47.47,0,0,0-.49-.56h-4a.67.67,0,0,0-.65.56l-.65,4.2a.47.47,0,0,0,.48.56Z"></path>
    <path class="logo-path"
          d="M199.43,18.71a1,1,0,0,1-.64.71l-4.46,1.14a.36.36,0,0,1-.48-.41l.36-2.84a.47.47,0,0,0-.5-.54l-3.2.06a.71.71,0,0,0-.67.57l-2.59,16.81a.68.68,0,0,1-.66.55h-4.33a.47.47,0,0,1-.49-.55L185,13.11a.68.68,0,0,1,.66-.56H190c.32,0,.55.18.51.41s.2.36.5.31l2.9-.48a22.87,22.87,0,0,1,3.45-.33c2,0,2.85.91,2.57,2.71Z"></path>
</svg>
