<svg id="Layer_1" data-name="Layer 1" xmlns="http://www.w3.org/2000/svg" viewBox="0 0 170 32">
    <defs>
        <style>.cls-1{fill:#fff;}</style>
    </defs>
    <title>logo-public</title>
    <polygon class="cls-1" points="32.64 25.94 33.57 20.75 28.9 20.75 27.98 25.94 32.64 25.94"/>
    <polygon class="cls-1" points="34.49 15.56 35.42 10.38 30.75 10.38 29.83 15.56 34.49 15.56"/>
    <polygon class="cls-1" points="37.27 0 32.6 0 31.68 5.19 36.34 5.19 37.27 0"/>
    <polygon class="cls-1" points="24.24 20.75 28.9 20.75 29.83 15.56 25.16 15.56 24.24 20.75"/>
    <polygon class="cls-1" points="27.02 5.19 26.09 10.38 30.75 10.38 31.68 5.19 27.02 5.19"/>
    <polygon class="cls-1" points="18.65 25.94 23.32 25.94 24.24 20.75 19.58 20.75 18.65 25.94"/>
    <polygon class="cls-1" points="20.5 15.56 25.16 15.56 26.09 10.38 21.43 10.38 20.5 15.56"/>
    <polygon class="cls-1" points="27.94 0 23.28 0 22.35 5.19 27.02 5.19 27.94 0"/>
    <polygon class="cls-1" points="15.84 15.56 14.91 20.75 19.58 20.75 20.5 15.56 15.84 15.56"/>
    <polygon class="cls-1" points="21.43 10.38 22.35 5.19 17.69 5.19 16.76 10.38 21.43 10.38"/>
    <polygon class="cls-1" points="9.33 25.94 13.99 25.94 14.91 20.75 10.25 20.75 9.33 25.94"/>
    <polygon class="cls-1" points="12.1 10.38 11.18 15.56 15.84 15.56 16.76 10.38 12.1 10.38"/>
    <polygon class="cls-1" points="6.51 15.56 5.59 20.75 10.25 20.75 11.18 15.56 6.51 15.56"/>
    <polygon class="cls-1" points="0 25.94 4.66 25.94 5.59 20.75 0.93 20.75 0 25.94"/>
    <path class="cls-1"
          d="M53.15,23.85a6.24,6.24,0,0,1-.36,1.23s-1.12,2.61-2.85,2.61H41.58A2.69,2.69,0,0,1,39,24.5l.78-4.9c.06-.35.33-.65.59-.65h3.49c.27,0,.44.3.38.65l-.63,3.73c-.06.36.11.65.38.65h4.12a.71.71,0,0,0,.59-.65l.64-4.08a1.18,1.18,0,0,0-.31-1l-6.5-4.61a4.61,4.61,0,0,1-.72-.8,3.73,3.73,0,0,1-.64-2.34L42,5.73a6.34,6.34,0,0,1,.36-1.22S43.51,1.9,45.27,1.9h8.27a2.78,2.78,0,0,1,.94.2,2.84,2.84,0,0,1,1.63,3l-.73,4.54c-.06.35-.32.64-.59.64H51.34c-.27,0-.44-.29-.38-.64l.58-3.53c.06-.36-.12-.65-.39-.65H47c-.47,0-.53.29-.59.65L45.8,9.74a1.15,1.15,0,0,0,.3,1l6.49,4.57a5,5,0,0,1,.73.79,3.7,3.7,0,0,1,.64,2.4Z"
          transform="translate(-0.61 -1.75)"/>
    <path class="cls-1"
          d="M57.43,9.88A.57.57,0,0,1,58,9.43h3.68c.27,0,.46.14.43.31s.17.28.44.24c0,0,4.55-.66,4.93-.66a3.44,3.44,0,0,1,2.61.9,2.75,2.75,0,0,1,.6,2.44L68.93,23.32a5.35,5.35,0,0,1-.24.87s-.83,2-2.12,2.61a10.08,10.08,0,0,1-4.06.64l-1.71,0c-.73,0-1.26,0-1.58,0l-1,6.67a.67.67,0,0,1-.54.53l-3.46.53c-.26,0-.45-.12-.41-.37Zm4.14,3-1.72,10.6a.39.39,0,0,0,.41.45h1.9a4.44,4.44,0,0,0,1-.13s1.15-.32,1.3-1.22l1.32-8.14a3,3,0,0,0,0-.89,1.14,1.14,0,0,0-1.16-.87c-.23,0-1.23.07-3,.2"
          transform="translate(-0.61 -1.75)"/>
    <path class="cls-1"
          d="M83.94,25a2.85,2.85,0,0,1-.29.85,3.59,3.59,0,0,1-2.77,1.82H73.32a3.76,3.76,0,0,1-.95-.14s-2.05-.6-1.8-2.08l2.12-13.06a3,3,0,0,1,.3-.85,3.59,3.59,0,0,1,2.76-1.82h7.57a3.9,3.9,0,0,1,1,.14s2,.6,1.8,2.08l-1,6.15a1.37,1.37,0,0,1-.45.74l-.71.54a1.67,1.67,0,0,1-.86.29H76.46a.57.57,0,0,0-.56.44l-.67,4.14a.39.39,0,0,0,.41.45h3.41a.58.58,0,0,0,.56-.45L80,22.17a.57.57,0,0,1,.56-.45H84a.39.39,0,0,1,.41.45ZM80.3,17a.59.59,0,0,0,.56-.45l.55-3.4a.39.39,0,0,0-.41-.45H77.59a.57.57,0,0,0-.56.45l-.55,3.4a.38.38,0,0,0,.41.45Z"
          transform="translate(-0.61 -1.75)"/>
    <path class="cls-1"
          d="M99.13,25a2.87,2.87,0,0,1-.3.85,3.59,3.59,0,0,1-2.76,1.82H88.5a3.83,3.83,0,0,1-1-.14s-2-.6-1.8-2.08l2.12-13.06a3.74,3.74,0,0,1,.3-.85,3.62,3.62,0,0,1,2.77-1.82H98.5a3.76,3.76,0,0,1,1,.14s2,.6,1.8,2.08l-1,6.15a1.44,1.44,0,0,1-.45.74l-.72.54a1.61,1.61,0,0,1-.86.29H91.64a.57.57,0,0,0-.56.44l-.67,4.14a.39.39,0,0,0,.41.45h3.41a.58.58,0,0,0,.56-.45l.34-2.09a.57.57,0,0,1,.56-.45h3.49a.39.39,0,0,1,.41.45Zm-3.65-8a.58.58,0,0,0,.56-.45l.56-3.4a.4.4,0,0,0-.42-.45H92.77a.57.57,0,0,0-.56.45l-.55,3.4a.39.39,0,0,0,.41.45Z"
          transform="translate(-0.61 -1.75)"/>
    <path class="cls-1"
          d="M150.5,27.21a.58.58,0,0,1-.56.44h-3.49c-.27,0-.47-.14-.44-.31s-.16-.28-.43-.25l-2.77.37a29.47,29.47,0,0,1-3.2.26c-1.69,0-2.43-.73-2.19-2.18l1-6a3,3,0,0,1,.3-.85,3.59,3.59,0,0,1,2.76-1.82h5.82a.57.57,0,0,0,.55-.45l.53-3.22a.39.39,0,0,0-.41-.45h-3.49a.57.57,0,0,0-.56.45l-.27,1.66a.59.59,0,0,1-.56.45h-3.25a.4.4,0,0,1-.42-.45l.41-2.46a3.36,3.36,0,0,1,.29-.86,3.61,3.61,0,0,1,2.77-1.81h7.4a3.76,3.76,0,0,1,.95.14s2,.6,1.76,2.08ZM146,24.44a.62.62,0,0,0,.57-.47l.63-3.92a.39.39,0,0,0-.41-.45h-3.49a.58.58,0,0,0-.56.45l-.67,4.06a.38.38,0,0,0,.42.44Z"
          transform="translate(-0.61 -1.75)"/>
    <path class="cls-1"
          d="M117.72,1.9l-3.45.54a.7.7,0,0,0-.55.52l-.48,3.09-.55,3.58-1.58,0c-.75,0-1.32,0-1.71,0a10.11,10.11,0,0,0-4.06.64c-1.28.57-2.11,2.61-2.11,2.61a4.63,4.63,0,0,0-.25.88l-1.73,10.65a2.72,2.72,0,0,0,.6,2.45,3.46,3.46,0,0,0,2.6.9c.38,0,4.94-.66,4.94-.66.26,0,.46.07.43.24s.17.31.44.31h3.67a.55.55,0,0,0,.55-.45l3.1-21.08.56-3.77A.33.33,0,0,0,117.72,1.9Zm-7.38,22.18c-1.76.13-2.76.2-3,.2a1.14,1.14,0,0,1-1.16-.87,3,3,0,0,1,0-.9l1.33-8.13c.14-.9,1.3-1.22,1.3-1.22a3.75,3.75,0,0,1,1-.13h1.9a.39.39,0,0,1,.42.45Z"
          transform="translate(-0.61 -1.75)"/>
    <polygon class="cls-1" points="129.24 14.88 129.26 14.76 129.26 14.76 129.24 14.88"/>
    <path class="cls-1"
          d="M168.33,10.09c0-.25-.16-.42-.44-.38l-3.66.54a.74.74,0,0,0-.59.52L163.18,14l-1.77,10.67h-3.53a.39.39,0,0,1-.41-.45h0l.67-4.14h0l.58-3.51s0,0,0,0l.41-2.54h0l.71-3.95c0-.25-.16-.42-.44-.38l-3.67.54a.71.71,0,0,0-.58.52L154.67,14h0l-1.74,10.67-.12.76c-.25,1.48,1.8,2.08,1.8,2.08a3.76,3.76,0,0,0,.95.14h5.36l-.58,3.48s-.26.72-.66.91a3.71,3.71,0,0,1-1.19.24H125.33a.3.3,0,0,0-.29.42l1,2.88a.65.65,0,0,0,.58.39h34c1.43,0,3.56-1.76,3.94-3.88S166,24,166,24h0l.59-3.54,0-.19h0v0l.53-3.21h0s0-.1,0-.3v0l.44-2.71Z"
          transform="translate(-0.61 -1.75)"/>
    <path class="cls-1"
          d="M137.62,9.71l-3.45.54a.7.7,0,0,0-.55.52l-.29,2h0l-1.92,12H128.5l.27-1.67s0,0,0,0l1-6.49h0l.28-1.6s0,0,0,0l.07-.41.7-4.37a.33.33,0,0,0-.42-.38l-3.45.54a.7.7,0,0,0-.55.52l-.6,3.69-.35,2.05h0l0,.12-1.3,8.08h-2.59a.39.39,0,0,1-.4-.45h0l.64-4.14h0l.55-3.51v0l.28-1.79.25-1.61a.08.08,0,0,0,0,0l.06-.41.43-2.64c0-.25-.15-.42-.42-.38l-3.45.54a.7.7,0,0,0-.55.52l-.32,2-.32,2.06-1.56,9.92-.12.76c-.23,1.48,1.74,2.08,1.74,2.08a3.6,3.6,0,0,0,.92.14h13.51l0,0a3.53,3.53,0,0,0,2.55-1.8,2.18,2.18,0,0,0,.17-.4l.12-.76.68-4.22,0-.19h0v0l.5-3.21h0s0-.1,0-.3v0l.53-3.39.09-.63.46-2.64C138.08,9.84,137.89,9.67,137.62,9.71Z"
          transform="translate(-0.61 -1.75)"/>
</svg>